<svg width="141" height="204" viewBox="0 0 141 204" fill="none" xmlns="http://www.w3.org/2000/svg">
<path d="M112.41 52.3206C110.921 52.3206 109.485 51.5038 108.765 50.0853C101.391 35.567 86.7285 26.5482 70.4997 26.5482C54.2709 26.5482 39.6089 35.567 32.2345 50.0847C31.213 52.0959 28.7541 52.8973 26.7434 51.8764C24.7323 50.855 23.9298 48.396 24.9512 46.3849C33.726 29.111 51.1789 18.3796 70.4997 18.3796C89.8206 18.3796 107.274 29.1107 116.048 46.3857C117.07 48.3969 116.267 50.8553 114.256 51.877C113.664 52.1777 113.032 52.3206 112.41 52.3206Z" fill="#3E9515"/>
<path d="M116.67 131.237L107.26 129.724L114.048 87.5164L123.458 89.0297C130.733 90.1998 135.682 97.046 134.512 104.321L131.961 120.182C130.791 127.458 123.945 132.407 116.67 131.237Z" fill="#BEFFC5"/>
<path d="M135.461 91.9934C132.734 88.2211 128.701 85.7365 124.106 84.9977L118.729 84.1329L119.237 80.9742C119.595 78.7471 118.08 76.6514 115.853 76.2931L94.0773 72.7912C93.0068 72.6186 91.9138 72.8791 91.0362 73.5139C90.1585 74.1486 89.5683 75.1056 89.3962 76.1752L80.2954 132.765C79.9371 134.992 81.4526 137.088 83.6794 137.446L105.455 140.948C105.671 140.983 105.888 141 106.104 141C106.957 141 107.796 140.732 108.496 140.226C109.374 139.591 109.964 138.634 110.136 137.564L110.644 134.405L116.021 135.27C116.941 135.418 117.877 135.493 118.804 135.493C127.398 135.493 134.627 129.327 135.993 120.832L138.544 104.97C139.283 100.374 138.189 95.7657 135.461 91.9934ZM89.009 130.03L96.8125 81.5043L110.523 83.7091L107.82 100.518L103.228 129.076C103.228 129.076 103.228 129.076 103.228 129.077L102.72 132.234L89.009 130.03ZM130.479 103.673L127.928 119.535C127.202 124.048 123.365 127.324 118.804 127.324C118.31 127.324 117.81 127.284 117.318 127.205L111.941 126.34L113.924 114.008L117.432 92.198L122.808 93.0627C125.25 93.4552 127.392 94.7754 128.841 96.7794C130.29 98.7832 130.872 101.231 130.479 103.673Z" fill="#3E9515"/>
<path d="M24.3299 131.237L33.7392 129.724L26.9516 87.5169L17.5424 89.0302C10.2674 90.2003 5.31778 97.0466 6.48764 104.322L9.03831 120.183C10.2087 127.458 17.0549 132.407 24.3299 131.237Z" fill="#BEFFC5"/>
<path d="M70.4997 0C32.2135 0 1.06549 31.1481 1.06549 69.4342C1.06549 77.4286 2.4116 85.2386 5.06168 92.6877C2.68589 96.3239 1.76113 100.652 2.45539 104.97L5.00661 120.831C6.37282 129.326 13.6018 135.492 22.1957 135.493C22.1957 135.493 22.1959 135.493 22.1965 135.493C23.1224 135.493 24.0587 135.418 24.979 135.27L30.3558 134.405L30.8639 137.564C31.0357 138.633 31.6256 139.59 32.5038 140.225C33.2044 140.731 34.0427 140.999 34.8964 140.999C35.112 140.999 35.3293 140.982 35.5449 140.948L57.3206 137.446C59.5477 137.088 61.0626 134.992 60.7046 132.765L55.5449 100.681C55.1866 98.4538 53.0926 96.9375 50.8638 97.2969C48.6367 97.6552 47.1218 99.7509 47.4798 101.978L51.991 130.029L38.2801 132.234L37.7723 129.076C37.7723 129.076 37.7723 129.076 37.7723 129.075L33.1799 100.518L30.4769 83.7088L44.1878 81.5041L44.8529 85.6404C45.2112 87.8672 47.3052 89.3833 49.534 89.0244C51.761 88.6661 53.276 86.5704 52.918 84.3433L51.6044 76.1747C51.4325 75.1051 50.8426 74.1481 49.9644 73.5133C49.0867 72.8785 47.9921 72.618 46.9233 72.7907L25.1476 76.2926C22.9205 76.6508 21.4056 78.7466 21.7636 80.9737L22.2717 84.1324L16.8949 84.9971C15.057 85.2923 13.3118 85.8715 11.7016 86.6963C10.065 81.1191 9.23495 75.3345 9.23495 69.4342C9.23495 35.6523 36.7187 8.16891 70.5003 8.16891C104.282 8.16891 131.766 35.6526 131.766 69.4342C131.766 71.69 133.594 73.5186 135.85 73.5186C138.106 73.5186 139.934 71.69 139.934 69.4342C139.934 31.1481 108.786 0 70.4997 0ZM18.1912 93.0628L23.5679 92.198L27.0756 114.008L29.0587 126.34L23.6819 127.205C23.189 127.284 22.6892 127.324 22.1959 127.324C17.6346 127.324 13.7973 124.048 13.0714 119.534L10.5202 103.673C10.1278 101.232 10.7094 98.7834 12.1579 96.7791C13.6065 94.7749 15.7496 93.4552 18.1912 93.0628Z" fill="#3E9515"/>
<path d="M45.7031 175.652C45.7031 175.779 45.6885 175.926 45.6592 176.092C45.6396 176.258 45.5762 176.419 45.4688 176.575C45.3711 176.722 45.2246 176.849 45.0293 176.956C44.834 177.063 44.5703 177.117 44.2383 177.117C43.8672 177.117 43.5742 177.068 43.3594 176.971C43.1445 176.863 42.9785 176.736 42.8613 176.59C42.7539 176.434 42.6807 176.272 42.6416 176.106C42.6123 175.94 42.5977 175.789 42.5977 175.652V174.773C42.1289 175.467 41.5283 176.033 40.7959 176.473C40.0732 176.902 39.1797 177.117 38.1152 177.117C37.9297 177.117 37.6416 177.103 37.251 177.073C36.8604 177.044 36.4209 176.966 35.9326 176.839C35.4443 176.712 34.9414 176.521 34.4238 176.268C33.9062 176.014 33.4326 175.662 33.0029 175.213C32.583 174.754 32.2363 174.188 31.9629 173.514C31.6895 172.83 31.5527 172 31.5527 171.023V162.82C31.5527 162.02 31.6504 161.312 31.8457 160.696C32.041 160.081 32.2949 159.549 32.6074 159.1C32.9297 158.641 33.2959 158.26 33.7061 157.957C34.1162 157.645 34.5361 157.386 34.9658 157.181C35.9619 156.712 37.0996 156.443 38.3789 156.375C39.4629 156.375 40.3906 156.497 41.1621 156.741C41.9336 156.985 42.5879 157.303 43.125 157.693C43.6621 158.084 44.0918 158.528 44.4141 159.026C44.7363 159.515 44.9854 160.013 45.1611 160.521C45.3369 161.028 45.4492 161.517 45.498 161.985C45.5566 162.454 45.5859 162.859 45.5859 163.201C45.5859 163.348 45.5713 163.528 45.542 163.743C45.5225 163.948 45.4395 164.148 45.293 164.344C45.1465 164.529 44.9121 164.69 44.5898 164.827C44.2773 164.954 43.8281 165.018 43.2422 165.018C43.0371 165.018 42.7832 165.008 42.4805 164.988C42.1875 164.959 41.9043 164.896 41.6309 164.798C41.3574 164.7 41.123 164.559 40.9277 164.373C40.7324 164.178 40.6348 163.914 40.6348 163.582C40.6348 163.055 40.6006 162.586 40.5322 162.176C40.4736 161.756 40.3613 161.399 40.1953 161.106C40.0293 160.813 39.7998 160.594 39.5068 160.447C39.2139 160.291 38.8379 160.213 38.3789 160.213C37.9004 160.213 37.5293 160.311 37.2656 160.506C37.0117 160.701 36.8262 160.916 36.709 161.15C36.5723 161.424 36.4941 161.736 36.4746 162.088V171.463C36.4746 171.775 36.5283 172.068 36.6357 172.342C36.7529 172.615 36.9141 172.854 37.1191 173.06C37.3242 173.265 37.5635 173.426 37.8369 173.543C38.1201 173.66 38.4277 173.719 38.7598 173.719C39.1504 173.719 39.502 173.636 39.8145 173.47C40.1367 173.294 40.4248 173.064 40.6787 172.781C40.9326 172.488 41.1572 172.161 41.3525 171.8C41.5576 171.429 41.7383 171.043 41.8945 170.643H40.4883C40.2051 170.613 39.9561 170.54 39.7412 170.423C39.5459 170.325 39.3701 170.179 39.2139 169.983C39.0674 169.788 38.9941 169.52 38.9941 169.178C38.9941 168.807 39.0674 168.523 39.2139 168.328C39.3701 168.123 39.5459 167.972 39.7412 167.874C39.9561 167.767 40.2051 167.703 40.4883 167.684H44.2969C44.3652 167.684 44.4727 167.698 44.6191 167.728C44.7754 167.747 44.9316 167.815 45.0879 167.933C45.2539 168.05 45.3955 168.226 45.5127 168.46C45.6396 168.685 45.7031 169.002 45.7031 169.412V175.652ZM58.2129 164.549C58.2129 165.311 58.0225 165.867 57.6416 166.219C57.2705 166.57 56.7383 166.746 56.0449 166.746C55.9473 166.746 55.8057 166.756 55.6201 166.775C55.4443 166.785 55.2539 166.824 55.0488 166.893C54.8438 166.951 54.6338 167.044 54.4189 167.171C54.2139 167.288 54.0234 167.454 53.8477 167.669C53.6719 167.874 53.5303 168.138 53.4229 168.46C53.3154 168.782 53.2617 169.168 53.2617 169.617V173.807C53.2617 174.207 53.2373 174.598 53.1885 174.979C53.1494 175.359 53.0518 175.701 52.8955 176.004C52.7393 176.297 52.5146 176.536 52.2217 176.722C51.9287 176.907 51.5332 177 51.0352 177C50.5469 177 50.1611 176.907 49.8779 176.722C49.5947 176.536 49.375 176.297 49.2188 176.004C49.0723 175.701 48.9746 175.359 48.9258 174.979C48.8867 174.598 48.8672 174.207 48.8672 173.807V165.604C48.8672 165.193 48.8867 164.798 48.9258 164.417C48.9746 164.026 49.0723 163.68 49.2188 163.377C49.375 163.074 49.5947 162.835 49.8779 162.659C50.1611 162.474 50.5469 162.381 51.0352 162.381C51.5332 162.381 51.9141 162.493 52.1777 162.718C52.4512 162.933 52.6514 163.216 52.7783 163.567C52.9053 163.909 52.9785 164.295 52.998 164.725C53.0176 165.145 53.0273 165.555 53.0273 165.955H53.2617C53.3984 165.408 53.5791 164.915 53.8037 164.476C54.0283 164.026 54.2773 163.65 54.5508 163.348C54.8242 163.035 55.1172 162.796 55.4297 162.63C55.7422 162.464 56.0547 162.381 56.3672 162.381C56.748 162.381 57.0557 162.425 57.29 162.513C57.5342 162.591 57.7246 162.718 57.8613 162.894C57.998 163.069 58.0908 163.294 58.1396 163.567C58.1885 163.841 58.2129 164.168 58.2129 164.549ZM59.6777 167.859C59.6777 166.961 59.7998 166.199 60.0439 165.574C60.2881 164.949 60.6006 164.427 60.9814 164.007C61.3721 163.587 61.8018 163.26 62.2705 163.025C62.749 162.791 63.2178 162.615 63.6768 162.498C64.1357 162.381 64.5605 162.308 64.9512 162.278C65.3516 162.249 65.6641 162.234 65.8887 162.234C66.1133 162.234 66.4209 162.249 66.8115 162.278C67.2021 162.308 67.6172 162.381 68.0566 162.498C68.5059 162.615 68.9551 162.791 69.4043 163.025C69.8633 163.26 70.2734 163.587 70.6348 164.007C71.0059 164.427 71.3086 164.949 71.543 165.574C71.7773 166.199 71.8945 166.961 71.8945 167.859V171.492C71.8945 172.391 71.7773 173.152 71.543 173.777C71.3086 174.402 71.0059 174.925 70.6348 175.345C70.2734 175.765 69.8633 176.092 69.4043 176.326C68.9551 176.561 68.5059 176.736 68.0566 176.854C67.6172 176.971 67.2021 177.044 66.8115 177.073C66.4209 177.103 66.1133 177.117 65.8887 177.117C65.6641 177.117 65.3516 177.103 64.9512 177.073C64.5605 177.044 64.1357 176.971 63.6768 176.854C63.2178 176.736 62.749 176.561 62.2705 176.326C61.8018 176.092 61.3721 175.765 60.9814 175.345C60.6006 174.925 60.2881 174.402 60.0439 173.777C59.7998 173.152 59.6777 172.391 59.6777 171.492V167.859ZM64.1895 172.518C64.1992 172.801 64.2676 173.05 64.3945 173.265C64.502 173.46 64.668 173.636 64.8926 173.792C65.127 173.938 65.459 174.012 65.8887 174.012C66.2988 174.012 66.6113 173.938 66.8262 173.792C67.0508 173.636 67.2168 173.46 67.3242 173.265C67.4414 173.05 67.5098 172.801 67.5293 172.518V167.215C67.5098 166.922 67.4414 166.653 67.3242 166.409C67.2168 166.214 67.0508 166.033 66.8262 165.867C66.6113 165.691 66.2988 165.604 65.8887 165.604C65.459 165.604 65.127 165.691 64.8926 165.867C64.668 166.033 64.502 166.214 64.3945 166.409C64.2676 166.653 64.1992 166.922 64.1895 167.215V172.518ZM74.1797 167.859C74.1797 166.961 74.3018 166.199 74.5459 165.574C74.79 164.949 75.1025 164.427 75.4834 164.007C75.874 163.587 76.3037 163.26 76.7725 163.025C77.251 162.791 77.7197 162.615 78.1787 162.498C78.6377 162.381 79.0625 162.308 79.4531 162.278C79.8535 162.249 80.166 162.234 80.3906 162.234C80.6152 162.234 80.9229 162.249 81.3135 162.278C81.7041 162.308 82.1191 162.381 82.5586 162.498C83.0078 162.615 83.457 162.791 83.9062 163.025C84.3652 163.26 84.7754 163.587 85.1367 164.007C85.5078 164.427 85.8105 164.949 86.0449 165.574C86.2793 166.199 86.3965 166.961 86.3965 167.859V171.492C86.3965 172.391 86.2793 173.152 86.0449 173.777C85.8105 174.402 85.5078 174.925 85.1367 175.345C84.7754 175.765 84.3652 176.092 83.9062 176.326C83.457 176.561 83.0078 176.736 82.5586 176.854C82.1191 176.971 81.7041 177.044 81.3135 177.073C80.9229 177.103 80.6152 177.117 80.3906 177.117C80.166 177.117 79.8535 177.103 79.4531 177.073C79.0625 177.044 78.6377 176.971 78.1787 176.854C77.7197 176.736 77.251 176.561 76.7725 176.326C76.3037 176.092 75.874 175.765 75.4834 175.345C75.1025 174.925 74.79 174.402 74.5459 173.777C74.3018 173.152 74.1797 172.391 74.1797 171.492V167.859ZM78.6914 172.518C78.7012 172.801 78.7695 173.05 78.8965 173.265C79.0039 173.46 79.1699 173.636 79.3945 173.792C79.6289 173.938 79.9609 174.012 80.3906 174.012C80.8008 174.012 81.1133 173.938 81.3281 173.792C81.5527 173.636 81.7188 173.46 81.8262 173.265C81.9434 173.05 82.0117 172.801 82.0312 172.518V167.215C82.0117 166.922 81.9434 166.653 81.8262 166.409C81.7188 166.214 81.5527 166.033 81.3281 165.867C81.1133 165.691 80.8008 165.604 80.3906 165.604C79.9609 165.604 79.6289 165.691 79.3945 165.867C79.1699 166.033 79.0039 166.214 78.8965 166.409C78.7695 166.653 78.7012 166.922 78.6914 167.215V172.518ZM96.2988 174.715C96.084 175.281 95.8838 175.721 95.6982 176.033C95.5127 176.336 95.332 176.561 95.1562 176.707C94.9805 176.854 94.8047 176.941 94.6289 176.971C94.4531 176.99 94.2676 177 94.0723 177C93.8574 177 93.6572 176.99 93.4717 176.971C93.2861 176.941 93.1006 176.858 92.915 176.722C92.7295 176.575 92.5391 176.351 92.3438 176.048C92.1484 175.735 91.9434 175.291 91.7285 174.715L88.418 166.043C88.3301 165.809 88.2471 165.56 88.1689 165.296C88.1006 165.022 88.0664 164.754 88.0664 164.49C88.0664 164.207 88.1006 163.938 88.1689 163.685C88.2471 163.421 88.3691 163.191 88.5352 162.996C88.7012 162.801 88.916 162.645 89.1797 162.527C89.4434 162.41 89.7656 162.352 90.1465 162.352C90.4199 162.352 90.6689 162.41 90.8936 162.527C91.1279 162.645 91.333 162.801 91.5088 162.996C91.6943 163.191 91.8555 163.416 91.9922 163.67C92.1289 163.924 92.2363 164.188 92.3145 164.461L93.9551 169.793H94.1895L95.7129 164.461C95.7812 164.217 95.8789 163.968 96.0059 163.714C96.1328 163.46 96.2842 163.235 96.46 163.04C96.6455 162.835 96.8604 162.669 97.1045 162.542C97.3584 162.415 97.6465 162.352 97.9688 162.352C98.3203 162.352 98.6182 162.415 98.8623 162.542C99.1064 162.659 99.3066 162.82 99.4629 163.025C99.6191 163.221 99.7314 163.45 99.7998 163.714C99.8682 163.978 99.9023 164.246 99.9023 164.52C99.9023 164.773 99.8682 165.027 99.7998 165.281C99.7412 165.535 99.6582 165.789 99.5508 166.043L96.2988 174.715ZM114.082 168.65C114.082 168.807 114.072 168.992 114.053 169.207C114.033 169.412 113.955 169.612 113.818 169.808C113.691 169.993 113.486 170.154 113.203 170.291C112.92 170.428 112.52 170.496 112.002 170.496H106.172V171.902C106.172 172.137 106.201 172.381 106.26 172.635C106.318 172.889 106.416 173.123 106.553 173.338C106.699 173.553 106.89 173.729 107.124 173.865C107.358 174.002 107.646 174.07 107.988 174.07C108.379 174.07 108.677 174.026 108.882 173.938C109.097 173.841 109.263 173.724 109.38 173.587C109.507 173.45 109.619 173.304 109.717 173.147C109.814 172.991 109.941 172.845 110.098 172.708C110.264 172.571 110.488 172.459 110.771 172.371C111.064 172.273 111.465 172.225 111.973 172.225C112.217 172.225 112.451 172.244 112.676 172.283C112.91 172.322 113.115 172.396 113.291 172.503C113.467 172.61 113.608 172.762 113.716 172.957C113.823 173.143 113.877 173.387 113.877 173.689C113.877 174.324 113.677 174.856 113.276 175.286C112.876 175.706 112.373 176.043 111.768 176.297C111.162 176.551 110.503 176.731 109.79 176.839C109.087 176.946 108.428 177 107.812 177C107.002 176.99 106.23 176.888 105.498 176.692C104.766 176.497 104.116 176.185 103.55 175.755C102.993 175.325 102.549 174.764 102.217 174.07C101.885 173.377 101.719 172.527 101.719 171.521V168.094C101.719 167.166 101.826 166.38 102.041 165.735C102.266 165.091 102.554 164.554 102.905 164.124C103.257 163.694 103.652 163.362 104.092 163.128C104.531 162.884 104.976 162.703 105.425 162.586C105.874 162.469 106.299 162.396 106.699 162.366C107.109 162.337 107.461 162.322 107.754 162.322C108.74 162.322 109.58 162.41 110.273 162.586C110.977 162.762 111.562 162.991 112.031 163.274C112.5 163.558 112.871 163.885 113.145 164.256C113.418 164.627 113.623 165.013 113.76 165.413C113.896 165.804 113.984 166.204 114.023 166.614C114.062 167.015 114.082 167.391 114.082 167.742V168.65ZM106.172 168.299H109.834C109.834 167.84 109.819 167.435 109.79 167.083C109.771 166.722 109.697 166.419 109.57 166.175C109.453 165.931 109.263 165.745 108.999 165.618C108.745 165.491 108.379 165.428 107.9 165.428C107.5 165.428 107.183 165.491 106.948 165.618C106.724 165.745 106.553 165.906 106.436 166.102C106.318 166.287 106.245 166.487 106.216 166.702C106.187 166.917 106.172 167.107 106.172 167.273V168.299Z" fill="white"/>
<path d="M42.8301 187.648C42.8398 188.059 42.957 188.43 43.1816 188.762C43.416 189.084 43.7188 189.392 44.0898 189.685C44.4707 189.978 44.9004 190.266 45.3789 190.549C45.8574 190.822 46.3457 191.115 46.8438 191.428C47.3516 191.73 47.8447 192.062 48.3232 192.424C48.8018 192.785 49.2314 193.195 49.6123 193.654C49.9932 194.113 50.3008 194.631 50.5352 195.207C50.7695 195.783 50.8965 196.438 50.916 197.17V197.287C50.916 198.088 50.8184 198.786 50.623 199.382C50.4277 199.978 50.1689 200.49 49.8467 200.92C49.5244 201.35 49.1484 201.706 48.7188 201.989C48.2891 202.263 47.835 202.482 47.3564 202.648C46.8877 202.814 46.4092 202.932 45.9209 203C45.4424 203.068 44.9883 203.107 44.5586 203.117H44.4121C43.582 203.117 42.8545 203.034 42.2295 202.868C41.6045 202.702 41.0674 202.482 40.6182 202.209C40.1689 201.926 39.793 201.604 39.4902 201.242C39.1973 200.881 38.9629 200.51 38.7871 200.129C38.6113 199.738 38.4844 199.353 38.4062 198.972C38.3281 198.591 38.2891 198.234 38.2891 197.902C38.2891 197.561 38.3477 197.263 38.4648 197.009C38.582 196.755 38.7334 196.55 38.9189 196.394C39.1143 196.228 39.334 196.105 39.5781 196.027C39.832 195.949 40.0957 195.91 40.3691 195.91C40.623 195.91 40.8818 195.949 41.1455 196.027C41.4189 196.105 41.6631 196.228 41.8779 196.394C42.1025 196.55 42.2832 196.755 42.4199 197.009C42.5664 197.253 42.6445 197.541 42.6543 197.873C42.6738 198.605 42.8398 199.108 43.1523 199.382C43.4648 199.646 43.9141 199.777 44.5 199.777C44.793 199.768 45.0615 199.733 45.3057 199.675C45.5596 199.606 45.7744 199.494 45.9502 199.338C46.126 199.172 46.2627 198.957 46.3604 198.693C46.4678 198.42 46.5215 198.078 46.5215 197.668C46.5215 197.16 46.4043 196.701 46.1699 196.291C45.9453 195.881 45.6475 195.5 45.2764 195.148C44.9053 194.797 44.4805 194.465 44.002 194.152C43.5234 193.83 43.0352 193.513 42.5371 193.2C42.0391 192.878 41.5508 192.546 41.0723 192.204C40.6035 191.853 40.1787 191.472 39.7979 191.062C39.417 190.651 39.1094 190.197 38.875 189.699C38.6504 189.201 38.5332 188.635 38.5234 188V187.766C38.5332 186.721 38.6699 185.852 38.9336 185.158C39.207 184.465 39.6025 183.913 40.1201 183.503C40.6475 183.093 41.292 182.805 42.0537 182.639C42.8154 182.463 43.6895 182.375 44.6758 182.375H45.0566C45.9551 182.375 46.7168 182.473 47.3418 182.668C47.9668 182.863 48.4844 183.112 48.8945 183.415C49.3145 183.718 49.6416 184.06 49.876 184.44C50.1201 184.821 50.3008 185.197 50.418 185.568C50.5352 185.939 50.6084 186.286 50.6377 186.608C50.667 186.931 50.6816 187.189 50.6816 187.385C50.6816 187.678 50.623 187.946 50.5059 188.19C50.3984 188.425 50.2471 188.625 50.0518 188.791C49.8662 188.957 49.6416 189.089 49.3779 189.187C49.124 189.274 48.8457 189.318 48.543 189.318C48.3086 189.318 48.0742 189.274 47.8398 189.187C47.6055 189.089 47.3955 188.967 47.21 188.82C47.0244 188.674 46.873 188.508 46.7559 188.322C46.6387 188.127 46.5801 187.932 46.5801 187.736C46.5801 186.936 46.4336 186.379 46.1406 186.066C45.8574 185.754 45.4375 185.598 44.8809 185.598C44.6172 185.598 44.3584 185.612 44.1045 185.642C43.8604 185.671 43.6406 185.754 43.4453 185.891C43.2598 186.018 43.1084 186.218 42.9912 186.491C42.8838 186.765 42.8301 187.15 42.8301 187.648ZM65.8574 199.689C65.8574 200.1 65.833 200.505 65.7842 200.905C65.7451 201.296 65.6475 201.647 65.4912 201.96C65.3447 202.272 65.125 202.526 64.832 202.722C64.5391 202.907 64.1387 203 63.6309 203C63.123 203 62.7178 202.907 62.415 202.722C62.1221 202.526 61.8926 202.272 61.7266 201.96C61.5703 201.647 61.4678 201.296 61.4189 200.905C61.3701 200.505 61.3457 200.1 61.3457 199.689V193.918C61.3457 193.664 61.3359 193.415 61.3164 193.171C61.2969 192.917 61.2432 192.692 61.1553 192.497C61.0674 192.302 60.9355 192.146 60.7598 192.028C60.5938 191.901 60.3594 191.838 60.0566 191.838C59.666 191.838 59.3486 191.97 59.1045 192.233C58.8604 192.487 58.665 192.844 58.5186 193.303C58.3818 193.752 58.2842 194.289 58.2256 194.914C58.1768 195.529 58.1523 196.193 58.1523 196.906V199.689C58.1523 200.1 58.1279 200.505 58.0791 200.905C58.04 201.296 57.9424 201.647 57.7861 201.96C57.6299 202.272 57.4004 202.526 57.0977 202.722C56.7949 202.907 56.3848 203 55.8672 203C55.3594 203 54.959 202.907 54.666 202.722C54.373 202.526 54.1484 202.272 53.9922 201.96C53.8457 201.647 53.748 201.296 53.6992 200.905C53.6602 200.505 53.6406 200.1 53.6406 199.689V185.803C53.6406 185.393 53.6602 184.992 53.6992 184.602C53.748 184.201 53.8457 183.845 53.9922 183.532C54.1484 183.22 54.373 182.971 54.666 182.785C54.959 182.59 55.3594 182.492 55.8672 182.492C56.3848 182.492 56.7949 182.59 57.0977 182.785C57.4004 182.971 57.6299 183.22 57.7861 183.532C57.9424 183.845 58.04 184.201 58.0791 184.602C58.1279 184.992 58.1523 185.393 58.1523 185.803V190.812C58.2402 190.529 58.3672 190.241 58.5332 189.948C58.6992 189.655 58.9141 189.392 59.1777 189.157C59.4414 188.923 59.749 188.732 60.1006 188.586C60.4619 188.43 60.877 188.352 61.3457 188.352C61.8828 188.352 62.4199 188.444 62.957 188.63C63.5039 188.806 63.9873 189.099 64.4072 189.509C64.8369 189.919 65.1836 190.461 65.4473 191.135C65.7207 191.799 65.8574 192.619 65.8574 193.596V199.689ZM80.4766 199.689C80.4766 200.1 80.4619 200.505 80.4326 200.905C80.4033 201.296 80.3154 201.647 80.1689 201.96C80.0225 202.272 79.8027 202.526 79.5098 202.722C79.2168 202.907 78.8066 203 78.2793 203C77.7422 203 77.3223 202.912 77.0195 202.736C76.7168 202.551 76.4922 202.331 76.3457 202.077C76.1992 201.813 76.1064 201.54 76.0674 201.257C76.0381 200.974 76.0234 200.734 76.0234 200.539C75.9355 200.822 75.8086 201.11 75.6426 201.403C75.4863 201.696 75.2812 201.96 75.0273 202.194C74.7734 202.429 74.4658 202.624 74.1045 202.78C73.7529 202.927 73.3379 203 72.8594 203C72.3223 203 71.7852 202.912 71.248 202.736C70.7109 202.561 70.2275 202.268 69.7979 201.857C69.3682 201.447 69.0166 200.915 68.7432 200.261C68.4795 199.597 68.3477 198.781 68.3477 197.814V193.566C68.3477 192.59 68.4795 191.774 68.7432 191.12C69.0166 190.456 69.3682 189.924 69.7979 189.523C70.2275 189.113 70.7109 188.82 71.248 188.645C71.7852 188.469 72.3223 188.381 72.8594 188.381C73.3379 188.381 73.7529 188.454 74.1045 188.601C74.4658 188.747 74.7734 188.938 75.0273 189.172C75.2812 189.406 75.4863 189.67 75.6426 189.963C75.8086 190.256 75.9355 190.549 76.0234 190.842C76.0234 190.354 76.0918 189.948 76.2285 189.626C76.3652 189.304 76.541 189.05 76.7559 188.864C76.9707 188.669 77.21 188.537 77.4736 188.469C77.7471 188.391 78.0156 188.352 78.2793 188.352C78.7676 188.352 79.1582 188.449 79.4512 188.645C79.7441 188.83 79.9639 189.079 80.1104 189.392C80.2666 189.694 80.3643 190.051 80.4033 190.461C80.4521 190.861 80.4766 191.271 80.4766 191.691V199.689ZM72.8594 197.434C72.8594 197.697 72.8691 197.956 72.8887 198.21C72.9082 198.464 72.9619 198.693 73.0498 198.898C73.1377 199.104 73.2646 199.27 73.4307 199.396C73.6064 199.514 73.8457 199.572 74.1484 199.572C74.5293 199.572 74.8369 199.489 75.0713 199.323C75.3154 199.147 75.5059 198.884 75.6426 198.532C75.7793 198.171 75.8721 197.722 75.9209 197.185C75.9795 196.638 76.0137 195.988 76.0234 195.236C76.0234 194.934 75.9941 194.587 75.9355 194.196C75.8867 193.796 75.7939 193.42 75.6572 193.068C75.5205 192.717 75.3301 192.419 75.0859 192.175C74.8418 191.931 74.5293 191.809 74.1484 191.809C73.8457 191.809 73.6064 191.872 73.4307 191.999C73.2646 192.116 73.1377 192.272 73.0498 192.468C72.9619 192.663 72.9082 192.888 72.8887 193.142C72.8691 193.386 72.8594 193.635 72.8594 193.889V197.434ZM93.3379 190.549C93.3379 191.311 93.1475 191.867 92.7666 192.219C92.3955 192.57 91.8633 192.746 91.1699 192.746C91.0723 192.746 90.9307 192.756 90.7451 192.775C90.5693 192.785 90.3789 192.824 90.1738 192.893C89.9688 192.951 89.7588 193.044 89.5439 193.171C89.3389 193.288 89.1484 193.454 88.9727 193.669C88.7969 193.874 88.6553 194.138 88.5479 194.46C88.4404 194.782 88.3867 195.168 88.3867 195.617V199.807C88.3867 200.207 88.3623 200.598 88.3135 200.979C88.2744 201.359 88.1768 201.701 88.0205 202.004C87.8643 202.297 87.6396 202.536 87.3467 202.722C87.0537 202.907 86.6582 203 86.1602 203C85.6719 203 85.2861 202.907 85.0029 202.722C84.7197 202.536 84.5 202.297 84.3438 202.004C84.1973 201.701 84.0996 201.359 84.0508 200.979C84.0117 200.598 83.9922 200.207 83.9922 199.807V191.604C83.9922 191.193 84.0117 190.798 84.0508 190.417C84.0996 190.026 84.1973 189.68 84.3438 189.377C84.5 189.074 84.7197 188.835 85.0029 188.659C85.2861 188.474 85.6719 188.381 86.1602 188.381C86.6582 188.381 87.0391 188.493 87.3027 188.718C87.5762 188.933 87.7764 189.216 87.9033 189.567C88.0303 189.909 88.1035 190.295 88.123 190.725C88.1426 191.145 88.1523 191.555 88.1523 191.955H88.3867C88.5234 191.408 88.7041 190.915 88.9287 190.476C89.1533 190.026 89.4023 189.65 89.6758 189.348C89.9492 189.035 90.2422 188.796 90.5547 188.63C90.8672 188.464 91.1797 188.381 91.4922 188.381C91.873 188.381 92.1807 188.425 92.415 188.513C92.6592 188.591 92.8496 188.718 92.9863 188.894C93.123 189.069 93.2158 189.294 93.2646 189.567C93.3135 189.841 93.3379 190.168 93.3379 190.549ZM107.371 194.65C107.371 194.807 107.361 194.992 107.342 195.207C107.322 195.412 107.244 195.612 107.107 195.808C106.98 195.993 106.775 196.154 106.492 196.291C106.209 196.428 105.809 196.496 105.291 196.496H99.4609V197.902C99.4609 198.137 99.4902 198.381 99.5488 198.635C99.6074 198.889 99.7051 199.123 99.8418 199.338C99.9883 199.553 100.179 199.729 100.413 199.865C100.647 200.002 100.936 200.07 101.277 200.07C101.668 200.07 101.966 200.026 102.171 199.938C102.386 199.841 102.552 199.724 102.669 199.587C102.796 199.45 102.908 199.304 103.006 199.147C103.104 198.991 103.23 198.845 103.387 198.708C103.553 198.571 103.777 198.459 104.061 198.371C104.354 198.273 104.754 198.225 105.262 198.225C105.506 198.225 105.74 198.244 105.965 198.283C106.199 198.322 106.404 198.396 106.58 198.503C106.756 198.61 106.897 198.762 107.005 198.957C107.112 199.143 107.166 199.387 107.166 199.689C107.166 200.324 106.966 200.856 106.565 201.286C106.165 201.706 105.662 202.043 105.057 202.297C104.451 202.551 103.792 202.731 103.079 202.839C102.376 202.946 101.717 203 101.102 203C100.291 202.99 99.5195 202.888 98.7871 202.692C98.0547 202.497 97.4053 202.185 96.8389 201.755C96.2822 201.325 95.8379 200.764 95.5059 200.07C95.1738 199.377 95.0078 198.527 95.0078 197.521V194.094C95.0078 193.166 95.1152 192.38 95.3301 191.735C95.5547 191.091 95.8428 190.554 96.1943 190.124C96.5459 189.694 96.9414 189.362 97.3809 189.128C97.8203 188.884 98.2646 188.703 98.7139 188.586C99.1631 188.469 99.5879 188.396 99.9883 188.366C100.398 188.337 100.75 188.322 101.043 188.322C102.029 188.322 102.869 188.41 103.562 188.586C104.266 188.762 104.852 188.991 105.32 189.274C105.789 189.558 106.16 189.885 106.434 190.256C106.707 190.627 106.912 191.013 107.049 191.413C107.186 191.804 107.273 192.204 107.312 192.614C107.352 193.015 107.371 193.391 107.371 193.742V194.65ZM99.4609 194.299H103.123C103.123 193.84 103.108 193.435 103.079 193.083C103.06 192.722 102.986 192.419 102.859 192.175C102.742 191.931 102.552 191.745 102.288 191.618C102.034 191.491 101.668 191.428 101.189 191.428C100.789 191.428 100.472 191.491 100.237 191.618C100.013 191.745 99.8418 191.906 99.7246 192.102C99.6074 192.287 99.5342 192.487 99.5049 192.702C99.4756 192.917 99.4609 193.107 99.4609 193.273V194.299Z" fill="white"/>
</svg>
